# xmcd
#
# Track frame offsets: 
#        150
#        20328
#        45124
#        58649
#        84824
#        108423
#        131735
#        151773
#        175329
#        193675
#        214255
#
# Disc length: 3070 seconds
#
# Revision: 0
# Processed by: cddbd v1.5.2PL0 Copyright (c) Steve Scherf et al.
# Submitted via: ExactAudioCopy v1.3
#
DISCID=850bfc0b
DTITLE=Theodis Ealey - It's A Real Good Thang
DYEAR=2002
DGENRE=Modern Electric Blues
TTITLE0=All My Baby Left Me Was A Note, My Guitar And A Cookie Jar 200
TTITLE0=2
TTITLE1=Reconsider Baby
TTITLE2=Baby, You've Got What It Takes
TTITLE3=You've Got To Hurt Before You Heal
TTITLE4=It's A Real Good Thang
TTITLE5=If You Leave Me, I'm Going Wit'cha 2002
TTITLE6=I Want You
TTITLE7=Ain't No Sunshine
TTITLE8=You And I Together
TTITLE9=Theo's Groove
TTITLE10=All My Baby Left Me Was A Note, My Guitar And A Cookie Jar 20
TTITLE10=02 (Radio Mix)
EXTD=
EXTT0=
EXTT1=
EXTT2=
EXTT3=
EXTT4=
EXTT5=
EXTT6=
EXTT7=
EXTT8=
EXTT9=
EXTT10=
PLAYORDER=
